dataset
version=1
nRows=25
nColumns=39
inDegrees=no
endheader
time	sternoclavicular_r2	sternoclavicular_r3	unrotscap_r3	unrotscap_r2	acromioclavicular_r2	acromioclavicular_r3	acromioclavicular_r1	unrothum_r1	unrothum_r3	unrothum_r2	elv_angle	shoulder_elv	shoulder1_r2	shoulder_rot	elbow_flexion	pro_sup	deviation	flexion	cmc_abduction	cmc_flexion	mp_flexion	ip_flexion	mcp2_flexion	mcp2_abduction	pm2_flexion	md2_flexion	mcp3_flexion	mcp3_abduction	pm3_flexion	md3_flexion	mcp4_flexion	mcp4_abduction	pm4_flexion	md4_flexion	mcp5_flexion	mcp5_abduction	pm5_flexion	md5_flexion
0.000000	-0.036485	-0.426169	0.271709	0.137549	0.104476	0.164737	-0.222484	-0.003919	-0.038276	0.139396	0.108200	0.027437	0.146525	0.146525	0.922886	0.988522	0.000000	0.000000	0.000000	0.000000	0.000000	0.000000	0.000000	0.000000	0.000000	0.000000	0.000000	0.000000	0.000000	0.000000	0.000000	0.000000	0.000000	0.000000	0.000000	0.000000	0.000000	0.000000
0.005000	-0.036500	-0.426134	0.271889	0.137706	0.104601	0.164910	-0.222585	-0.003532	-0.038423	0.139446	0.108279	0.027437	0.146525	0.146525	0.922900	0.996754	0.000000	0.000000	0.000000	0.000000	0.000000	0.000000	0.000000	0.000000	0.000000	0.000000	0.000000	0.000000	0.000000	0.000000	0.000000	0.000000	0.000000	0.000000	0.000000	0.000000	0.000000	0.000000
0.010000	-0.036505	-0.426065	0.271953	0.137833	0.104710	0.165011	-0.222595	-0.003322	-0.038433	0.139512	0.108379	0.027437	0.146525	0.146525	0.922910	1.004768	0.000000	0.000000	0.000000	0.000000	0.000000	0.000000	0.000000	0.000000	0.000000	0.000000	0.000000	0.000000	0.000000	0.000000	0.000000	0.000000	0.000000	0.000000	0.000000	0.000000	0.000000	0.000000
0.015000	-0.036504	-0.425971	0.271941	0.137940	0.104808	0.165065	-0.222546	-0.003226	-0.038354	0.139589	0.108493	0.027437	0.146525	0.146525	0.922913	1.012570	0.000000	0.000000	0.000000	0.000000	0.000000	0.000000	0.000000	0.000000	0.000000	0.000000	0.000000	0.000000	0.000000	0.000000	0.000000	0.000000	0.000000	0.000000	0.000000	0.000000	0.000000	0.000000
0.020000	-0.036499	-0.425859	0.271878	0.138034	0.104901	0.165087	-0.222458	-0.003207	-0.038215	0.139674	0.108616	0.027437	0.146525	0.146525	0.922912	1.020165	0.000000	0.000000	0.000000	0.000000	0.000000	0.000000	0.000000	0.000000	0.000000	0.000000	0.000000	0.000000	0.000000	0.000000	0.000000	0.000000	0.000000	0.000000	0.000000	0.000000	0.000000	0.000000
0.025000	-0.036491	-0.425732	0.271782	0.138120	0.104989	0.165086	-0.222344	-0.003240	-0.038037	0.139765	0.108747	0.027437	0.146525	0.146525	0.922907	1.027559	0.000000	0.000000	0.000000	0.000000	0.000000	0.000000	0.000000	0.000000	0.000000	0.000000	0.000000	0.000000	0.000000	0.000000	0.000000	0.000000	0.000000	0.000000	0.000000	0.000000	0.000000	0.000000
0.030000	-0.036481	-0.425595	0.271662	0.138201	0.105075	0.165070	-0.222213	-0.003309	-0.037832	0.139861	0.108882	0.027437	0.146525	0.146525	0.922899	1.034756	0.000000	0.000000	0.000000	0.000000	0.000000	0.000000	0.000000	0.000000	0.000000	0.000000	0.000000	0.000000	0.000000	0.000000	0.000000	0.000000	0.000000	0.000000	0.000000	0.000000	0.000000	0.000000
0.035000	-0.036470	-0.425448	0.271526	0.138278	0.105160	0.165041	-0.222069	-0.003404	-0.037608	0.139960	0.109021	0.027437	0.146525	0.146525	0.922891	1.041762	0.000000	0.000000	0.000000	0.000000	0.000000	0.000000	0.000000	0.000000	0.000000	0.000000	0.000000	0.000000	0.000000	0.000000	0.000000	0.000000	0.000000	0.000000	0.000000	0.000000	0.000000	0.000000
0.040000	-0.036457	-0.425292	0.271377	0.138351	0.105242	0.165003	-0.221916	-0.003520	-0.037371	0.140061	0.109162	0.027437	0.146525	0.146525	0.922883	1.048581	0.000000	0.000000	0.000000	0.000000	0.000000	0.000000	0.000000	0.000000	0.000000	0.000000	0.000000	0.000000	0.000000	0.000000	0.000000	0.000000	0.000000	0.000000	0.000000	0.000000	0.000000	0.000000
0.045000	-0.036444	-0.425129	0.271218	0.138420	0.105324	0.164957	-0.221757	-0.003652	-0.037123	0.140164	0.109304	0.027437	0.146525	0.146525	0.922880	1.055218	0.000000	0.000000	0.000000	0.000000	0.000000	0.000000	0.000000	0.000000	0.000000	0.000000	0.000000	0.000000	0.000000	0.000000	0.000000	0.000000	0.000000	0.000000	0.000000	0.000000	0.000000	0.000000
0.050000	-0.036429	-0.424959	0.271051	0.138487	0.105403	0.164905	-0.221592	-0.003798	-0.036868	0.140269	0.109447	0.027437	0.146525	0.146525	0.922881	1.061678	0.000000	0.000000	0.000000	0.000000	0.000000	0.000000	0.000000	0.000000	0.000000	0.000000	0.000000	0.000000	0.000000	0.000000	0.000000	0.000000	0.000000	0.000000	0.000000	0.000000	0.000000	0.000000
0.055000	-0.036413	-0.424782	0.270878	0.138551	0.105481	0.164846	-0.221424	-0.003956	-0.036608	0.140373	0.109590	0.027437	0.146525	0.146525	0.922891	1.067966	0.000000	0.000000	0.000000	0.000000	0.000000	0.000000	0.000000	0.000000	0.000000	0.000000	0.000000	0.000000	0.000000	0.000000	0.000000	0.000000	0.000000	0.000000	0.000000	0.000000	0.000000	0.000000
0.060000	-0.036397	-0.424599	0.270699	0.138611	0.105555	0.164781	-0.221252	-0.004125	-0.036342	0.140478	0.109732	0.027437	0.146525	0.146525	0.922910	1.074085	0.000000	0.000000	0.000000	0.000000	0.000000	0.000000	0.000000	0.000000	0.000000	0.000000	0.000000	0.000000	0.000000	0.000000	0.000000	0.000000	0.000000	0.000000	0.000000	0.000000	0.000000	0.000000
0.065000	-0.036380	-0.424410	0.270515	0.138667	0.105627	0.164712	-0.221078	-0.004304	-0.036074	0.140581	0.109871	0.027437	0.146525	0.146525	0.922942	1.080041	0.000000	0.000000	0.000000	0.000000	0.000000	0.000000	0.000000	0.000000	0.000000	0.000000	0.000000	0.000000	0.000000	0.000000	0.000000	0.000000	0.000000	0.000000	0.000000	0.000000	0.000000	0.000000
0.070000	-0.036361	-0.424215	0.270327	0.138718	0.105696	0.164637	-0.220902	-0.004493	-0.035802	0.140684	0.110009	0.027437	0.146525	0.146525	0.922988	1.085838	0.000000	0.000000	0.000000	0.000000	0.000000	0.000000	0.000000	0.000000	0.000000	0.000000	0.000000	0.000000	0.000000	0.000000	0.000000	0.000000	0.000000	0.000000	0.000000	0.000000	0.000000	0.000000
0.075000	-0.036342	-0.424015	0.270135	0.138765	0.105760	0.164558	-0.220724	-0.004690	-0.035529	0.140784	0.110143	0.027437	0.146525	0.146525	0.923052	1.091479	0.000000	0.000000	0.000000	0.000000	0.000000	0.000000	0.000000	0.000000	0.000000	0.000000	0.000000	0.000000	0.000000	0.000000	0.000000	0.000000	0.000000	0.000000	0.000000	0.000000	0.000000	0.000000
0.080000	-0.036321	-0.423811	0.269939	0.138807	0.105821	0.164474	-0.220545	-0.004897	-0.035255	0.140881	0.110274	0.027437	0.146525	0.146525	0.923135	1.096968	0.000000	0.000000	0.000000	0.000000	0.000000	0.000000	0.000000	0.000000	0.000000	0.000000	0.000000	0.000000	0.000000	0.000000	0.000000	0.000000	0.000000	0.000000	0.000000	0.000000	0.000000	0.000000
0.085000	-0.036300	-0.423601	0.269740	0.138843	0.105876	0.164386	-0.220365	-0.005112	-0.034981	0.140976	0.110400	0.027437	0.146525	0.146525	0.923240	1.102310	0.000000	0.000000	0.000000	0.000000	0.000000	0.000000	0.000000	0.000000	0.000000	0.000000	0.000000	0.000000	0.000000	0.000000	0.000000	0.000000	0.000000	0.000000	0.000000	0.000000	0.000000	0.000000
0.090000	-0.036277	-0.423388	0.269539	0.138872	0.105926	0.164294	-0.220185	-0.005334	-0.034707	0.141066	0.110520	0.027437	0.146525	0.146525	0.923369	1.107509	0.000000	0.000000	0.000000	0.000000	0.000000	0.000000	0.000000	0.000000	0.000000	0.000000	0.000000	0.000000	0.000000	0.000000	0.000000	0.000000	0.000000	0.000000	0.000000	0.000000	0.000000	0.000000
0.095000	-0.036253	-0.423171	0.269335	0.138896	0.105970	0.164199	-0.220004	-0.005564	-0.034434	0.141153	0.110635	0.027437	0.146525	0.146525	0.923525	1.112567	0.000000	0.000000	0.000000	0.000000	0.000000	0.000000	0.000000	0.000000	0.000000	0.000000	0.000000	0.000000	0.000000	0.000000	0.000000	0.000000	0.000000	0.000000	0.000000	0.000000	0.000000	0.000000
0.100000	-0.036228	-0.422951	0.269130	0.138912	0.106007	0.164101	-0.219823	-0.005801	-0.034163	0.141234	0.110743	0.027437	0.146525	0.146525	0.923710	1.117489	0.000000	0.000000	0.000000	0.000000	0.000000	0.000000	0.000000	0.000000	0.000000	0.000000	0.000000	0.000000	0.000000	0.000000	0.000000	0.000000	0.000000	0.000000	0.000000	0.000000	0.000000	0.000000
0.105000	-0.036202	-0.422728	0.268924	0.138921	0.106037	0.163999	-0.219643	-0.006045	-0.033894	0.141309	0.110844	0.027437	0.146525	0.146525	0.923926	1.122278	0.000000	0.000000	0.000000	0.000000	0.000000	0.000000	0.000000	0.000000	0.000000	0.000000	0.000000	0.000000	0.000000	0.000000	0.000000	0.000000	0.000000	0.000000	0.000000	0.000000	0.000000	0.000000
0.110000	-0.036175	-0.422502	0.268717	0.138922	0.106060	0.163895	-0.219464	-0.006295	-0.033629	0.141378	0.110937	0.027437	0.146525	0.146525	0.924177	1.126937	0.000000	0.000000	0.000000	0.000000	0.000000	0.000000	0.000000	0.000000	0.000000	0.000000	0.000000	0.000000	0.000000	0.000000	0.000000	0.000000	0.000000	0.000000	0.000000	0.000000	0.000000	0.000000
0.115000	-0.036146	-0.422275	0.268510	0.138915	0.106075	0.163789	-0.219287	-0.006549	-0.033367	0.141440	0.111021	0.027437	0.146525	0.146525	0.924464	1.131470	0.000000	0.000000	0.000000	0.000000	0.000000	0.000000	0.000000	0.000000	0.000000	0.000000	0.000000	0.000000	0.000000	0.000000	0.000000	0.000000	0.000000	0.000000	0.000000	0.000000	0.000000	0.000000
0.120000	-0.036116	-0.422047	0.268303	0.138899	0.106082	0.163681	-0.219111	-0.006809	-0.033110	0.141494	0.111095	0.027437	0.146525	0.146525	0.924789	1.135879	0.000000	0.000000	0.000000	0.000000	0.000000	0.000000	0.000000	0.000000	0.000000	0.000000	0.000000	0.000000	0.000000	0.000000	0.000000	0.000000	0.000000	0.000000	0.000000	0.000000	0.000000	0.000000
